<mxfile host="app.diagrams.net" modified="2023-10-15T19:36:47.174Z" agent="Mozilla/5.0 (X11; Ubuntu; Linux x86_64; rv:109.0) Gecko/20100101 Firefox/118.0" etag="w18vKN0bQeAKnb8xWuru" version="22.0.4" type="github">
  <diagram id="C5RBs43oDa-KdzZeNtuy" name="Page-1">
    <mxGraphModel dx="1154" dy="548" grid="1" gridSize="10" guides="1" tooltips="1" connect="1" arrows="1" fold="1" page="1" pageScale="1" pageWidth="827" pageHeight="1169" math="0" shadow="0">
      <root>
        <mxCell id="WIyWlLk6GJQsqaUBKTNV-0" />
        <mxCell id="WIyWlLk6GJQsqaUBKTNV-1" parent="WIyWlLk6GJQsqaUBKTNV-0" />
        <mxCell id="WIyWlLk6GJQsqaUBKTNV-2" value="" style="rounded=0;html=1;jettySize=auto;orthogonalLoop=1;fontSize=11;endArrow=block;endFill=0;endSize=8;strokeWidth=1;shadow=0;labelBackgroundColor=none;edgeStyle=orthogonalEdgeStyle;" parent="WIyWlLk6GJQsqaUBKTNV-1" source="WIyWlLk6GJQsqaUBKTNV-3" target="WIyWlLk6GJQsqaUBKTNV-6" edge="1">
          <mxGeometry relative="1" as="geometry" />
        </mxCell>
        <mxCell id="WIyWlLk6GJQsqaUBKTNV-3" value="read" style="rounded=1;whiteSpace=wrap;html=1;fontSize=12;glass=0;strokeWidth=1;shadow=0;" parent="WIyWlLk6GJQsqaUBKTNV-1" vertex="1">
          <mxGeometry x="3.5" y="80" width="120" height="40" as="geometry" />
        </mxCell>
        <mxCell id="WIyWlLk6GJQsqaUBKTNV-4" value="no" style="rounded=0;html=1;jettySize=auto;orthogonalLoop=1;fontSize=11;endArrow=block;endFill=0;endSize=8;strokeWidth=1;shadow=0;labelBackgroundColor=none;edgeStyle=orthogonalEdgeStyle;" parent="WIyWlLk6GJQsqaUBKTNV-1" source="WIyWlLk6GJQsqaUBKTNV-6" target="WIyWlLk6GJQsqaUBKTNV-10" edge="1">
          <mxGeometry y="20" relative="1" as="geometry">
            <mxPoint as="offset" />
          </mxGeometry>
        </mxCell>
        <mxCell id="WIyWlLk6GJQsqaUBKTNV-5" value="yes" style="edgeStyle=orthogonalEdgeStyle;rounded=0;html=1;jettySize=auto;orthogonalLoop=1;fontSize=11;endArrow=block;endFill=0;endSize=8;strokeWidth=1;shadow=0;labelBackgroundColor=none;" parent="WIyWlLk6GJQsqaUBKTNV-1" source="WIyWlLk6GJQsqaUBKTNV-6" target="WIyWlLk6GJQsqaUBKTNV-7" edge="1">
          <mxGeometry y="10" relative="1" as="geometry">
            <mxPoint as="offset" />
          </mxGeometry>
        </mxCell>
        <mxCell id="WIyWlLk6GJQsqaUBKTNV-6" value="is tab?" style="rhombus;whiteSpace=wrap;html=1;shadow=0;fontFamily=Helvetica;fontSize=12;align=center;strokeWidth=1;spacing=6;spacingTop=-4;" parent="WIyWlLk6GJQsqaUBKTNV-1" vertex="1">
          <mxGeometry x="13.5" y="170" width="100" height="80" as="geometry" />
        </mxCell>
        <mxCell id="NJGwAmN8iUr_1sxsh8-F-1" value="" style="edgeStyle=orthogonalEdgeStyle;rounded=0;orthogonalLoop=1;jettySize=auto;html=1;" edge="1" parent="WIyWlLk6GJQsqaUBKTNV-1" source="WIyWlLk6GJQsqaUBKTNV-7" target="NJGwAmN8iUr_1sxsh8-F-0">
          <mxGeometry relative="1" as="geometry" />
        </mxCell>
        <mxCell id="WIyWlLk6GJQsqaUBKTNV-7" value="save" style="rounded=1;whiteSpace=wrap;html=1;fontSize=12;glass=0;strokeWidth=1;shadow=0;" parent="WIyWlLk6GJQsqaUBKTNV-1" vertex="1">
          <mxGeometry x="163.5" y="190" width="120" height="40" as="geometry" />
        </mxCell>
        <mxCell id="WIyWlLk6GJQsqaUBKTNV-9" value="Yes" style="edgeStyle=orthogonalEdgeStyle;rounded=0;html=1;jettySize=auto;orthogonalLoop=1;fontSize=11;endArrow=block;endFill=0;endSize=8;strokeWidth=1;shadow=0;labelBackgroundColor=none;" parent="WIyWlLk6GJQsqaUBKTNV-1" source="WIyWlLk6GJQsqaUBKTNV-10" target="WIyWlLk6GJQsqaUBKTNV-12" edge="1">
          <mxGeometry y="10" relative="1" as="geometry">
            <mxPoint as="offset" />
          </mxGeometry>
        </mxCell>
        <mxCell id="NJGwAmN8iUr_1sxsh8-F-18" value="" style="edgeStyle=orthogonalEdgeStyle;rounded=0;orthogonalLoop=1;jettySize=auto;html=1;" edge="1" parent="WIyWlLk6GJQsqaUBKTNV-1" source="WIyWlLk6GJQsqaUBKTNV-10" target="NJGwAmN8iUr_1sxsh8-F-11">
          <mxGeometry relative="1" as="geometry" />
        </mxCell>
        <mxCell id="WIyWlLk6GJQsqaUBKTNV-10" value="is a-z?" style="rhombus;whiteSpace=wrap;html=1;shadow=0;fontFamily=Helvetica;fontSize=12;align=center;strokeWidth=1;spacing=6;spacingTop=-4;" parent="WIyWlLk6GJQsqaUBKTNV-1" vertex="1">
          <mxGeometry x="13.5" y="290" width="100" height="80" as="geometry" />
        </mxCell>
        <mxCell id="NJGwAmN8iUr_1sxsh8-F-77" style="edgeStyle=orthogonalEdgeStyle;rounded=0;orthogonalLoop=1;jettySize=auto;html=1;" edge="1" parent="WIyWlLk6GJQsqaUBKTNV-1" source="WIyWlLk6GJQsqaUBKTNV-12">
          <mxGeometry relative="1" as="geometry">
            <mxPoint x="520" y="450" as="targetPoint" />
          </mxGeometry>
        </mxCell>
        <mxCell id="WIyWlLk6GJQsqaUBKTNV-12" value="add" style="rounded=1;whiteSpace=wrap;html=1;fontSize=12;glass=0;strokeWidth=1;shadow=0;" parent="WIyWlLk6GJQsqaUBKTNV-1" vertex="1">
          <mxGeometry x="163.5" y="310" width="120" height="40" as="geometry" />
        </mxCell>
        <mxCell id="NJGwAmN8iUr_1sxsh8-F-3" value="" style="edgeStyle=orthogonalEdgeStyle;rounded=0;orthogonalLoop=1;jettySize=auto;html=1;" edge="1" parent="WIyWlLk6GJQsqaUBKTNV-1" source="NJGwAmN8iUr_1sxsh8-F-0" target="NJGwAmN8iUr_1sxsh8-F-2">
          <mxGeometry relative="1" as="geometry" />
        </mxCell>
        <mxCell id="NJGwAmN8iUr_1sxsh8-F-69" style="edgeStyle=orthogonalEdgeStyle;rounded=0;orthogonalLoop=1;jettySize=auto;html=1;" edge="1" parent="WIyWlLk6GJQsqaUBKTNV-1" source="NJGwAmN8iUr_1sxsh8-F-0" target="NJGwAmN8iUr_1sxsh8-F-39">
          <mxGeometry relative="1" as="geometry" />
        </mxCell>
        <mxCell id="NJGwAmN8iUr_1sxsh8-F-0" value="tab depth correct?" style="rhombus;whiteSpace=wrap;html=1;rounded=1;glass=0;strokeWidth=1;shadow=0;" vertex="1" parent="WIyWlLk6GJQsqaUBKTNV-1">
          <mxGeometry x="374.25" y="170" width="80" height="80" as="geometry" />
        </mxCell>
        <mxCell id="NJGwAmN8iUr_1sxsh8-F-2" value="return NULL" style="whiteSpace=wrap;html=1;rounded=1;glass=0;strokeWidth=1;shadow=0;" vertex="1" parent="WIyWlLk6GJQsqaUBKTNV-1">
          <mxGeometry x="354.25" y="283" width="120" height="27" as="geometry" />
        </mxCell>
        <mxCell id="NJGwAmN8iUr_1sxsh8-F-4" value="no" style="text;html=1;align=center;verticalAlign=middle;resizable=0;points=[];autosize=1;strokeColor=none;fillColor=none;" vertex="1" parent="WIyWlLk6GJQsqaUBKTNV-1">
          <mxGeometry x="408.25" y="253" width="40" height="30" as="geometry" />
        </mxCell>
        <mxCell id="NJGwAmN8iUr_1sxsh8-F-10" value="Yes" style="edgeStyle=orthogonalEdgeStyle;rounded=0;html=1;jettySize=auto;orthogonalLoop=1;fontSize=11;endArrow=block;endFill=0;endSize=8;strokeWidth=1;shadow=0;labelBackgroundColor=none;" edge="1" parent="WIyWlLk6GJQsqaUBKTNV-1" source="NJGwAmN8iUr_1sxsh8-F-11" target="NJGwAmN8iUr_1sxsh8-F-13">
          <mxGeometry y="10" relative="1" as="geometry">
            <mxPoint as="offset" />
          </mxGeometry>
        </mxCell>
        <mxCell id="NJGwAmN8iUr_1sxsh8-F-27" value="" style="edgeStyle=orthogonalEdgeStyle;rounded=0;orthogonalLoop=1;jettySize=auto;html=1;" edge="1" parent="WIyWlLk6GJQsqaUBKTNV-1" source="NJGwAmN8iUr_1sxsh8-F-11" target="NJGwAmN8iUr_1sxsh8-F-20">
          <mxGeometry relative="1" as="geometry" />
        </mxCell>
        <mxCell id="NJGwAmN8iUr_1sxsh8-F-11" value="is colon" style="rhombus;whiteSpace=wrap;html=1;shadow=0;fontFamily=Helvetica;fontSize=12;align=center;strokeWidth=1;spacing=6;spacingTop=-4;" vertex="1" parent="WIyWlLk6GJQsqaUBKTNV-1">
          <mxGeometry x="13.5" y="415" width="100" height="80" as="geometry" />
        </mxCell>
        <mxCell id="NJGwAmN8iUr_1sxsh8-F-12" value="" style="edgeStyle=orthogonalEdgeStyle;rounded=0;orthogonalLoop=1;jettySize=auto;html=1;" edge="1" parent="WIyWlLk6GJQsqaUBKTNV-1" source="NJGwAmN8iUr_1sxsh8-F-13" target="NJGwAmN8iUr_1sxsh8-F-15">
          <mxGeometry relative="1" as="geometry" />
        </mxCell>
        <mxCell id="NJGwAmN8iUr_1sxsh8-F-13" value="add" style="rounded=1;whiteSpace=wrap;html=1;fontSize=12;glass=0;strokeWidth=1;shadow=0;" vertex="1" parent="WIyWlLk6GJQsqaUBKTNV-1">
          <mxGeometry x="163.5" y="435" width="120" height="40" as="geometry" />
        </mxCell>
        <mxCell id="NJGwAmN8iUr_1sxsh8-F-14" value="" style="edgeStyle=orthogonalEdgeStyle;rounded=0;orthogonalLoop=1;jettySize=auto;html=1;" edge="1" parent="WIyWlLk6GJQsqaUBKTNV-1" source="NJGwAmN8iUr_1sxsh8-F-15" target="NJGwAmN8iUr_1sxsh8-F-16">
          <mxGeometry relative="1" as="geometry" />
        </mxCell>
        <mxCell id="NJGwAmN8iUr_1sxsh8-F-75" style="edgeStyle=orthogonalEdgeStyle;rounded=0;orthogonalLoop=1;jettySize=auto;html=1;entryX=0;entryY=0.5;entryDx=0;entryDy=0;" edge="1" parent="WIyWlLk6GJQsqaUBKTNV-1" source="NJGwAmN8iUr_1sxsh8-F-15" target="NJGwAmN8iUr_1sxsh8-F-39">
          <mxGeometry relative="1" as="geometry" />
        </mxCell>
        <mxCell id="NJGwAmN8iUr_1sxsh8-F-15" value="unique colon?" style="rhombus;whiteSpace=wrap;html=1;rounded=1;glass=0;strokeWidth=1;shadow=0;" vertex="1" parent="WIyWlLk6GJQsqaUBKTNV-1">
          <mxGeometry x="373.5" y="410" width="90" height="90" as="geometry" />
        </mxCell>
        <mxCell id="NJGwAmN8iUr_1sxsh8-F-16" value="return NULL" style="whiteSpace=wrap;html=1;rounded=1;glass=0;strokeWidth=1;shadow=0;" vertex="1" parent="WIyWlLk6GJQsqaUBKTNV-1">
          <mxGeometry x="358.5" y="530" width="120" height="27" as="geometry" />
        </mxCell>
        <mxCell id="NJGwAmN8iUr_1sxsh8-F-17" value="no" style="text;html=1;align=center;verticalAlign=middle;resizable=0;points=[];autosize=1;strokeColor=none;fillColor=none;" vertex="1" parent="WIyWlLk6GJQsqaUBKTNV-1">
          <mxGeometry x="413.5" y="500" width="40" height="30" as="geometry" />
        </mxCell>
        <mxCell id="NJGwAmN8iUr_1sxsh8-F-19" value="Yes" style="edgeStyle=orthogonalEdgeStyle;rounded=0;html=1;jettySize=auto;orthogonalLoop=1;fontSize=11;endArrow=block;endFill=0;endSize=8;strokeWidth=1;shadow=0;labelBackgroundColor=none;" edge="1" parent="WIyWlLk6GJQsqaUBKTNV-1" source="NJGwAmN8iUr_1sxsh8-F-20" target="NJGwAmN8iUr_1sxsh8-F-22">
          <mxGeometry y="10" relative="1" as="geometry">
            <mxPoint as="offset" />
          </mxGeometry>
        </mxCell>
        <mxCell id="NJGwAmN8iUr_1sxsh8-F-29" value="" style="edgeStyle=orthogonalEdgeStyle;rounded=0;orthogonalLoop=1;jettySize=auto;html=1;" edge="1" parent="WIyWlLk6GJQsqaUBKTNV-1" source="NJGwAmN8iUr_1sxsh8-F-20">
          <mxGeometry relative="1" as="geometry">
            <mxPoint x="63.51724137931046" y="660.0137931034483" as="targetPoint" />
          </mxGeometry>
        </mxCell>
        <mxCell id="NJGwAmN8iUr_1sxsh8-F-20" value="is newline?" style="rhombus;whiteSpace=wrap;html=1;shadow=0;fontFamily=Helvetica;fontSize=12;align=center;strokeWidth=1;spacing=6;spacingTop=-4;" vertex="1" parent="WIyWlLk6GJQsqaUBKTNV-1">
          <mxGeometry x="13.5" y="545" width="100" height="80" as="geometry" />
        </mxCell>
        <mxCell id="NJGwAmN8iUr_1sxsh8-F-47" value="" style="edgeStyle=orthogonalEdgeStyle;rounded=0;orthogonalLoop=1;jettySize=auto;html=1;" edge="1" parent="WIyWlLk6GJQsqaUBKTNV-1" source="NJGwAmN8iUr_1sxsh8-F-22" target="NJGwAmN8iUr_1sxsh8-F-46">
          <mxGeometry relative="1" as="geometry" />
        </mxCell>
        <mxCell id="NJGwAmN8iUr_1sxsh8-F-22" value="end" style="rounded=1;whiteSpace=wrap;html=1;fontSize=12;glass=0;strokeWidth=1;shadow=0;" vertex="1" parent="WIyWlLk6GJQsqaUBKTNV-1">
          <mxGeometry x="163.5" y="565" width="120" height="40" as="geometry" />
        </mxCell>
        <mxCell id="NJGwAmN8iUr_1sxsh8-F-30" value="no" style="text;html=1;align=center;verticalAlign=middle;resizable=0;points=[];autosize=1;strokeColor=none;fillColor=none;" vertex="1" parent="WIyWlLk6GJQsqaUBKTNV-1">
          <mxGeometry x="58" y="378" width="40" height="30" as="geometry" />
        </mxCell>
        <mxCell id="NJGwAmN8iUr_1sxsh8-F-31" value="no" style="text;html=1;align=center;verticalAlign=middle;resizable=0;points=[];autosize=1;strokeColor=none;fillColor=none;" vertex="1" parent="WIyWlLk6GJQsqaUBKTNV-1">
          <mxGeometry x="58" y="500" width="40" height="30" as="geometry" />
        </mxCell>
        <mxCell id="NJGwAmN8iUr_1sxsh8-F-32" value="no" style="text;html=1;align=center;verticalAlign=middle;resizable=0;points=[];autosize=1;strokeColor=none;fillColor=none;" vertex="1" parent="WIyWlLk6GJQsqaUBKTNV-1">
          <mxGeometry x="58" y="630" width="40" height="30" as="geometry" />
        </mxCell>
        <mxCell id="NJGwAmN8iUr_1sxsh8-F-33" value="return NULL" style="rounded=1;whiteSpace=wrap;html=1;fontSize=12;glass=0;strokeWidth=1;shadow=0;" vertex="1" parent="WIyWlLk6GJQsqaUBKTNV-1">
          <mxGeometry x="3.5" y="660" width="120" height="40" as="geometry" />
        </mxCell>
        <mxCell id="NJGwAmN8iUr_1sxsh8-F-34" value="return Token" style="rounded=1;whiteSpace=wrap;html=1;fontSize=12;glass=0;strokeWidth=1;shadow=0;" vertex="1" parent="WIyWlLk6GJQsqaUBKTNV-1">
          <mxGeometry x="358.5" y="665" width="120" height="30" as="geometry" />
        </mxCell>
        <mxCell id="NJGwAmN8iUr_1sxsh8-F-39" value="add context character" style="rounded=0;whiteSpace=wrap;html=1;" vertex="1" parent="WIyWlLk6GJQsqaUBKTNV-1">
          <mxGeometry x="690" y="425" width="120" height="60" as="geometry" />
        </mxCell>
        <mxCell id="NJGwAmN8iUr_1sxsh8-F-48" style="edgeStyle=orthogonalEdgeStyle;rounded=0;orthogonalLoop=1;jettySize=auto;html=1;" edge="1" parent="WIyWlLk6GJQsqaUBKTNV-1" source="NJGwAmN8iUr_1sxsh8-F-46" target="NJGwAmN8iUr_1sxsh8-F-34">
          <mxGeometry relative="1" as="geometry" />
        </mxCell>
        <mxCell id="NJGwAmN8iUr_1sxsh8-F-50" style="edgeStyle=orthogonalEdgeStyle;rounded=0;orthogonalLoop=1;jettySize=auto;html=1;entryX=0.5;entryY=0;entryDx=0;entryDy=0;" edge="1" parent="WIyWlLk6GJQsqaUBKTNV-1" source="NJGwAmN8iUr_1sxsh8-F-46" target="NJGwAmN8iUr_1sxsh8-F-49">
          <mxGeometry relative="1" as="geometry" />
        </mxCell>
        <mxCell id="NJGwAmN8iUr_1sxsh8-F-46" value="correct pattern?" style="rhombus;whiteSpace=wrap;html=1;rounded=1;glass=0;strokeWidth=1;shadow=0;" vertex="1" parent="WIyWlLk6GJQsqaUBKTNV-1">
          <mxGeometry x="183.5" y="640" width="80" height="80" as="geometry" />
        </mxCell>
        <mxCell id="NJGwAmN8iUr_1sxsh8-F-49" value="return NULL" style="whiteSpace=wrap;html=1;rounded=1;glass=0;strokeWidth=1;shadow=0;" vertex="1" parent="WIyWlLk6GJQsqaUBKTNV-1">
          <mxGeometry x="163.5" y="750" width="120" height="30" as="geometry" />
        </mxCell>
        <mxCell id="NJGwAmN8iUr_1sxsh8-F-51" value="&lt;div align=&quot;justify&quot;&gt;CONTEXT CAHRACTER&lt;/div&gt;&lt;div align=&quot;justify&quot;&gt;&lt;br&gt;Context character is a data structure where tracks the current state of the token.&lt;/div&gt;" style="text;html=1;strokeColor=none;fillColor=none;align=center;verticalAlign=middle;whiteSpace=wrap;rounded=0;" vertex="1" parent="WIyWlLk6GJQsqaUBKTNV-1">
          <mxGeometry x="530" y="328" width="150" height="130" as="geometry" />
        </mxCell>
        <mxCell id="NJGwAmN8iUr_1sxsh8-F-64" style="edgeStyle=orthogonalEdgeStyle;rounded=0;orthogonalLoop=1;jettySize=auto;html=1;exitX=0.5;exitY=1;exitDx=0;exitDy=0;" edge="1" parent="WIyWlLk6GJQsqaUBKTNV-1">
          <mxGeometry relative="1" as="geometry">
            <mxPoint x="553.5" y="425" as="sourcePoint" />
            <mxPoint x="553.5" y="425" as="targetPoint" />
          </mxGeometry>
        </mxCell>
        <mxCell id="NJGwAmN8iUr_1sxsh8-F-73" value="yes" style="text;html=1;align=center;verticalAlign=middle;resizable=0;points=[];autosize=1;strokeColor=none;fillColor=none;" vertex="1" parent="WIyWlLk6GJQsqaUBKTNV-1">
          <mxGeometry x="453.5" y="435" width="40" height="30" as="geometry" />
        </mxCell>
        <mxCell id="NJGwAmN8iUr_1sxsh8-F-74" value="yes" style="text;html=1;align=center;verticalAlign=middle;resizable=0;points=[];autosize=1;strokeColor=none;fillColor=none;" vertex="1" parent="WIyWlLk6GJQsqaUBKTNV-1">
          <mxGeometry x="442.75" y="185" width="40" height="30" as="geometry" />
        </mxCell>
      </root>
    </mxGraphModel>
  </diagram>
</mxfile>
